<svg xmlns="http://www.w3.org/2000/svg" xmlns:xlink="http://www.w3.org/1999/xlink" id="Layer_1" x="0px" y="0px" viewBox="0 0 570.1 166" style="enable-background:new 0 0 570.1 166;" xml:space="preserve"><style type="text/css">	.st0{fill-rule:evenodd;clip-rule:evenodd;fill:#FFFFFF;}	.st1{fill-rule:evenodd;clip-rule:evenodd;fill:url(#SVGID_1_);}	.st2{fill-rule:evenodd;clip-rule:evenodd;fill:url(#SVGID_00000182509358107161443410000005960263311879172786_);}	.st3{fill-rule:evenodd;clip-rule:evenodd;fill:url(#SVGID_00000034062243665929111160000008815095087068570003_);}	.st4{fill-rule:evenodd;clip-rule:evenodd;fill:url(#SVGID_00000001639318794249564950000004018554709522819717_);}	.st5{fill-rule:evenodd;clip-rule:evenodd;fill:url(#SVGID_00000179609525276781142900000013856173945269513089_);}	.st6{fill-rule:evenodd;clip-rule:evenodd;fill:url(#SVGID_00000027569885458935999730000003939191052439526585_);}	.st7{fill-rule:evenodd;clip-rule:evenodd;fill:url(#SVGID_00000103256218955503457470000001071672620047356845_);}	.st8{fill-rule:evenodd;clip-rule:evenodd;fill:url(#SVGID_00000052083981460294926900000017399274868839300261_);}</style><path class="st0" d="M405.1,31.4l-10.4,13.7c-1,1.3-2.4,2-4,2h-64.2c-2,0-3.6-1-4.5-2.8c-0.9-1.7-0.7-3.7,0.5-5.3l10.4-13.7 c1-1.3,2.4-2,4-2h64.2c2,0,3.6,1,4.5,2.8C406.5,27.9,406.3,29.9,405.1,31.4L405.1,31.4z M297.7,24.9c-1.5-1.5-3.5-1.9-5.5-1.1 c-1.9,0.8-3.1,2.6-3.1,4.6v67.7c0,22.3,18.2,40.5,40.5,40.5h41.5c22.3,0,40.5-18.2,40.5-40.5s-18.2-40.5-40.5-40.5h-34.3 c-1.6,0-3,0.7-4,2l-10.4,13.7c-1.2,1.6-1.4,3.5-0.5,5.3c0.9,1.7,2.5,2.8,4.5,2.8h44.8c9.2,0,16.8,7.5,16.8,16.8 c0,9.2-7.5,16.8-16.8,16.8h-41.5c-9.2,0-16.8-7.6-16.8-16.8v-54c0-1.4-0.5-2.6-1.5-3.5L297.7,24.9L297.7,24.9z M93.5,23.4h17.2 c1.6,0,3,0.7,4,2l33.8,45.3c0.7,0.9,1,1.9,1,3v22.5c0,22.3-18.2,40.5-40.5,40.5H67.5c-22.3,0-40.5-18.2-40.5-40.5 s18.2-40.5,40.5-40.5h28.7c1.6,0,3,0.7,4,2l10.4,13.7c1.2,1.6,1.4,3.5,0.5,5.3c-0.9,1.7-2.5,2.8-4.5,2.8H67.5 c-9.2,0-16.8,7.5-16.8,16.8c0,9.2,7.5,16.8,16.8,16.8H109c9.2,0,16.8-7.5,16.8-16.8V80c0-0.1,0-0.2-0.1-0.3L89.5,31.4 c-1.2-1.6-1.3-3.5-0.5-5.2C89.9,24.4,91.6,23.4,93.5,23.4L93.5,23.4z M241.8,136.7h-17.2c-1.9,0-3.6-1-4.5-2.8 c-0.9-1.7-0.7-3.7,0.5-5.2l36.2-48.4c0.1-0.1,0.1-0.1,0.1-0.3V63.9c0-9.2-7.5-16.8-16.8-16.8h-41.5c-9.2,0-16.8,7.5-16.8,16.8 c0,9.2,7.5,16.8,16.8,16.8h39.2c1.9,0,3.6,1,4.5,2.8c0.9,1.7,0.7,3.7-0.5,5.3l-10.4,13.7c-1,1.3-2.4,2-4,2h-28.7 c-22.3,0-40.5-18.2-40.5-40.5s18.2-40.5,40.5-40.5h41.5c22.3,0,40.5,18.2,40.5,40.5v22.5c0,1.1-0.3,2.1-1,3l-33.8,45.3 C244.8,136,243.4,136.7,241.8,136.7z"></path><linearGradient id="SVGID_1_" gradientUnits="userSpaceOnUse" x1="306.5398" y1="101.4187" x2="310.3591" y2="54.0619" gradientTransform="matrix(1 0 0 -1 0 168)">	<stop offset="0" style="stop-color:#FFFFFF"></stop>	<stop offset="0.195" style="stop-color:#FAFAFA;stop-opacity:0.8708"></stop>	<stop offset="0.3434" style="stop-color:#EBEAEB;stop-opacity:0.7724"></stop>	<stop offset="0.4764" style="stop-color:#D3D1D2;stop-opacity:0.6843"></stop>	<stop offset="0.6004" style="stop-color:#B4B1B2;stop-opacity:0.6021"></stop>	<stop offset="0.7181" style="stop-color:#8E8B8C;stop-opacity:0.5241"></stop>	<stop offset="0.8312" style="stop-color:#656263;stop-opacity:0.4492"></stop>	<stop offset="0.9385" style="stop-color:#3C3B3B;stop-opacity:0.3781"></stop>	<stop offset="1" style="stop-color:#252626;stop-opacity:0.3373"></stop></linearGradient><path class="st1" d="M328.2,112.9L328.2,112.9c-25.4-0.1-38.4-13.7-39-40.8V36.2c0-2.1,1.2-3.8,3.1-4.6c1.9-0.8,4-0.4,5.5,1.1 l13.7,13.7c1,1,1.5,2.2,1.5,3.5v46.2C312.9,104.9,319.6,112.1,328.2,112.9z"></path><linearGradient id="SVGID_00000062913478226771987730000016357839750285392034_" gradientUnits="userSpaceOnUse" x1="259.6633" y1="88.971" x2="263.6597" y2="123.4408" gradientTransform="matrix(1 0 0 -1 0 168)">	<stop offset="0" style="stop-color:#FFFFFF"></stop>	<stop offset="0.195" style="stop-color:#FAFAFA;stop-opacity:0.9059"></stop>	<stop offset="0.3434" style="stop-color:#EBEAEB;stop-opacity:0.8343"></stop>	<stop offset="0.4764" style="stop-color:#D3D1D2;stop-opacity:0.7702"></stop>	<stop offset="0.6004" style="stop-color:#B4B1B2;stop-opacity:0.7104"></stop>	<stop offset="0.7181" style="stop-color:#8E8B8C;stop-opacity:0.6536"></stop>	<stop offset="0.8312" style="stop-color:#656263;stop-opacity:0.599"></stop>	<stop offset="0.9385" style="stop-color:#3C3B3B;stop-opacity:0.5473"></stop>	<stop offset="1" style="stop-color:#252626;stop-opacity:0.5176"></stop></linearGradient><path style="fill-rule:evenodd;clip-rule:evenodd;fill:url(#SVGID_00000062913478226771987730000016357839750285392034_);" d=" M241.6,47.2L241.6,47.2c21.8,0,34.5,10.1,38,30.1c0.1,0.6,0.7,9.9,0.8,10.5L257,89.7l-0.2-12.4V63.9C256.9,55.2,250.1,48,241.6,47.2 z"></path><linearGradient id="SVGID_00000114768259706469552040000004398069239957184400_" gradientUnits="userSpaceOnUse" x1="128.563" y1="86.9322" x2="132.5594" y2="52.4626" gradientTransform="matrix(1 0 0 -1 0 168)">	<stop offset="0" style="stop-color:#FFFFFF"></stop>	<stop offset="0.195" style="stop-color:#FAFAFA;stop-opacity:0.9059"></stop>	<stop offset="0.3434" style="stop-color:#EBEAEB;stop-opacity:0.8343"></stop>	<stop offset="0.4764" style="stop-color:#D3D1D2;stop-opacity:0.7702"></stop>	<stop offset="0.6004" style="stop-color:#B4B1B2;stop-opacity:0.7104"></stop>	<stop offset="0.7181" style="stop-color:#8E8B8C;stop-opacity:0.6536"></stop>	<stop offset="0.8312" style="stop-color:#656263;stop-opacity:0.599"></stop>	<stop offset="0.9385" style="stop-color:#3C3B3B;stop-opacity:0.5473"></stop>	<stop offset="1" style="stop-color:#252626;stop-opacity:0.5176"></stop></linearGradient><path style="fill-rule:evenodd;clip-rule:evenodd;fill:url(#SVGID_00000114768259706469552040000004398069239957184400_);" d=" M110.5,112.9L110.5,112.9c21.8,0,34.5-10.1,38-30.1c0.1-0.6,0.7-9.9,0.8-10.5l-23.4-1.9l-0.2,12.4v13.4 C125.8,104.9,119,112.1,110.5,112.9z"></path><linearGradient id="SVGID_00000129896944980728212150000009665673908213744790_" gradientUnits="userSpaceOnUse" x1="372.2708" y1="48.5895" x2="394.5247" y2="78.3398" gradientTransform="matrix(1 0 0 -1 0 168)">	<stop offset="0" style="stop-color:#FFFFFF"></stop>	<stop offset="0.195" style="stop-color:#FAFAFA;stop-opacity:0.8593"></stop>	<stop offset="0.3434" style="stop-color:#EBEAEB;stop-opacity:0.7522"></stop>	<stop offset="0.4764" style="stop-color:#D3D1D2;stop-opacity:0.6562"></stop>	<stop offset="0.6004" style="stop-color:#B4B1B2;stop-opacity:0.5668"></stop>	<stop offset="0.7181" style="stop-color:#8E8B8C;stop-opacity:0.4818"></stop>	<stop offset="0.8312" style="stop-color:#656263;stop-opacity:0.4002"></stop>	<stop offset="0.9385" style="stop-color:#3C3B3B;stop-opacity:0.3228"></stop>	<stop offset="1" style="stop-color:#252626;stop-opacity:0.2784"></stop></linearGradient><path style="fill-rule:evenodd;clip-rule:evenodd;fill:url(#SVGID_00000129896944980728212150000009665673908213744790_);" d=" M367.6,136.7c1.1-8.1,1.5-17.3,2.2-23.7h1.4c9.2,0,16.8-7.5,16.8-16.8c0-9.2-7.5-16.8-16.8-16.8c15.1-0.6,25.4,1.4,31,6.1 C419.7,100,402.8,138.2,367.6,136.7z"></path><linearGradient id="SVGID_00000003809064846346254470000001436993320478592903_" gradientUnits="userSpaceOnUse" x1="197.6716" y1="125.3586" x2="174.6384" y2="98.1912" gradientTransform="matrix(1 0 0 -1 0 168)">	<stop offset="0" style="stop-color:#FFFFFF"></stop>	<stop offset="0.195" style="stop-color:#FAFAFA;stop-opacity:0.8593"></stop>	<stop offset="0.3434" style="stop-color:#EBEAEB;stop-opacity:0.7522"></stop>	<stop offset="0.4764" style="stop-color:#D3D1D2;stop-opacity:0.6562"></stop>	<stop offset="0.6004" style="stop-color:#B4B1B2;stop-opacity:0.5668"></stop>	<stop offset="0.7181" style="stop-color:#8E8B8C;stop-opacity:0.4818"></stop>	<stop offset="0.8312" style="stop-color:#656263;stop-opacity:0.4002"></stop>	<stop offset="0.9385" style="stop-color:#3C3B3B;stop-opacity:0.3228"></stop>	<stop offset="1" style="stop-color:#252626;stop-opacity:0.2784"></stop></linearGradient><path style="fill-rule:evenodd;clip-rule:evenodd;fill:url(#SVGID_00000003809064846346254470000001436993320478592903_);" d=" M202.1,23.4c-1.1,8.1-1.5,17.3-2.2,23.7h-1.4c-9.2,0-16.8,7.5-16.8,16.8c0,9.2,7.5,16.8,16.8,16.8c-15.1,0.6-25.4-1.4-31-6.1 C150,60.1,167,21.9,202.1,23.4z"></path><linearGradient id="SVGID_00000129887562355939339420000013832512653070059164_" gradientUnits="userSpaceOnUse" x1="66.5523" y1="50.5389" x2="43.5191" y2="77.7063" gradientTransform="matrix(1 0 0 -1 0 168)">	<stop offset="0" style="stop-color:#FFFFFF"></stop>	<stop offset="0.195" style="stop-color:#FAFAFA;stop-opacity:0.8593"></stop>	<stop offset="0.3434" style="stop-color:#EBEAEB;stop-opacity:0.7522"></stop>	<stop offset="0.4764" style="stop-color:#D3D1D2;stop-opacity:0.6562"></stop>	<stop offset="0.6004" style="stop-color:#B4B1B2;stop-opacity:0.5668"></stop>	<stop offset="0.7181" style="stop-color:#8E8B8C;stop-opacity:0.4818"></stop>	<stop offset="0.8312" style="stop-color:#656263;stop-opacity:0.4002"></stop>	<stop offset="0.9385" style="stop-color:#3C3B3B;stop-opacity:0.3228"></stop>	<stop offset="1" style="stop-color:#252626;stop-opacity:0.2784"></stop></linearGradient><path style="fill-rule:evenodd;clip-rule:evenodd;fill:url(#SVGID_00000129887562355939339420000013832512653070059164_);" d=" M71,136.7c-1.1-8.1-1.5-17.3-2.2-23.7h-1.4c-9.2,0-16.8-7.5-16.8-16.8c0-9.2,7.5-16.8,16.8-16.8c-15.1-0.6-25.4,1.4-31,6.1 C18.9,100,35.8,138.2,71,136.7z"></path><linearGradient id="SVGID_00000023968160286747453230000007677250800846561434_" gradientUnits="userSpaceOnUse" x1="533.9939" y1="15.592" x2="473.2372" y2="111.9467" gradientTransform="matrix(1 0 0 -1 0 168)">	<stop offset="0" style="stop-color:#680B00"></stop>	<stop offset="0.1025" style="stop-color:#7B1000"></stop>	<stop offset="0.3166" style="stop-color:#9F1806"></stop>	<stop offset="0.5201" style="stop-color:#BD1D0B"></stop>	<stop offset="0.7076" style="stop-color:#D2210E"></stop>	<stop offset="0.8733" style="stop-color:#E0230E"></stop>	<stop offset="1" style="stop-color:#E4240E"></stop></linearGradient><path style="fill-rule:evenodd;clip-rule:evenodd;fill:url(#SVGID_00000023968160286747453230000007677250800846561434_);" d=" M471.4,23.4h34c21.8,0,39.7,17.9,39.7,39.7v34c0,21.8-17.9,39.7-39.7,39.7h-34c-21.8,0-39.7-17.9-39.7-39.7V63 C431.7,41.2,449.6,23.4,471.4,23.4z"></path><linearGradient id="SVGID_00000009574801452480077220000002266663471925279630_" gradientUnits="userSpaceOnUse" x1="447.5655" y1="152.7893" x2="502.0181" y2="66.4321" gradientTransform="matrix(1 0 0 -1 0 168)">	<stop offset="0" style="stop-color:#680B00"></stop>	<stop offset="0.1025" style="stop-color:#7B1000"></stop>	<stop offset="0.3166" style="stop-color:#9F1806"></stop>	<stop offset="0.5201" style="stop-color:#BD1D0B"></stop>	<stop offset="0.7076" style="stop-color:#D2210E"></stop>	<stop offset="0.8733" style="stop-color:#E0230E"></stop>	<stop offset="1" style="stop-color:#E4240E"></stop></linearGradient><path style="fill-rule:evenodd;clip-rule:evenodd;fill:url(#SVGID_00000009574801452480077220000002266663471925279630_);" d=" M503.7,130.9h-30.5c-19.6,0-35.6-16-35.6-35.6V64.8c0-19.6,16-35.6,35.6-35.6h30.5c19.6,0,35.6,16,35.6,35.6v30.5 C539.2,114.9,523.2,130.9,503.7,130.9z"></path><path class="st0" d="M493.3,102.5h6.6c6.3,0,11.4-5.1,11.4-11.4s-5.1-11.4-11.4-11.4h-30.5c-1.3,0-2.5-0.7-3.1-1.9 c-0.6-1.2-0.5-2.5,0.3-3.6l7.1-9.3c0.7-0.9,1.6-1.3,2.7-1.3h23.4c15.2,0,27.6,12.4,27.6,27.6c0,14.9-12,27.2-26.9,27.6 c-0.1,0-0.2,0-0.2,0H500l0,0h-6.6l0,0h-10l0,0h-6.6l0,0h-0.4c-0.1,0-0.2,0-0.3,0c-13.5-0.3-24.8-10.5-26.6-23.5 c-0.3-1.8,0.5-4,3-4.1h9.6c1.9,0.1,3.1,1.1,3.6,3v0.1l0,0l0,0c1.4,4.8,5.8,8.3,11,8.3h6.6l0,0L493.3,102.5L493.3,102.5L493.3,102.5z  M523,46.9l-7.1,9.3c-0.7,0.9-1.6,1.3-2.7,1.3h-43.8c-1.3,0-2.5-0.7-3.1-1.9s-0.5-2.5,0.3-3.6l7.1-9.3c0.7-0.9,1.6-1.3,2.7-1.3h43.8 c1.3,0,2.5,0.7,3.1,1.9C524,44.5,523.8,45.9,523,46.9z"></path></svg>